# xmcd CD database file
#
# Track frame offsets:
#	150
#	10238
#	25011
#	36891
#	51627
#	61191
#	75140
#	91686
#	103007
#	115988
#	127790
#	143575
#	159603
#	185448
#	212591
#	227140
#	250919
#	270375
#
# Disc length: 4021 seconds
#
# Revision: 0
# Processed by: cddbd v1.5PL3 Copyright (c) Steve Scherf et al.
# Submitted via: CDex 1.50
#
DISCID=df0fb312
DTITLE=AUGUST - 月は東に日は西に ORIGINAL SOUND TRACK disc2
DYEAR=2003
DGENRE=Game
TTITLE0=Silent Air
TTITLE1=divergent flow - orgel version -
TTITLE2=invisible shadow
TTITLE3=FIGHT INSTINCT
TTITLE4=クリーミー・クリーミー
TTITLE5=ラバーソウル・ストリーミング
TTITLE6=quiet prayer
TTITLE7=幻想ノスタルジー
TTITLE8=永久(とわ)の光
TTITLE9=両手いっぱいレインボー
TTITLE10=A LOT OF COLOR AND THOUGHTS
TTITLE11=UNSPOKEN WORDS
TTITLE12=明日の想い出
TTITLE13=divergent flow
TTITLE14=divergent flow - please don't touch mix -
TTITLE15=陽だまりロケット - bring me honey mix -
TTITLE16=Silent Air - old fashion cake mix -
TTITLE17=はにはにメドレー
EXTD=YEAR: 2003
EXTT0=
EXTT1=
EXTT2=
EXTT3=
EXTT4=
EXTT5=
EXTT6=
EXTT7=
EXTT8=
EXTT9=
EXTT10=
EXTT11=
EXTT12=
EXTT13=
EXTT14=
EXTT15=
EXTT16=
EXTT17=
PLAYORDER=
